<?xml version="1.0" ?><!DOCTYPE svg  PUBLIC '-//W3C//DTD SVG 1.1//EN'  'http://www.w3.org/Graphics/SVG/1.1/DTD/svg11.dtd'><svg enable-background="new 0 0 48 48" height="48px" version="1.1" viewBox="0 0 48 48" width="48px" xml:space="preserve" xmlns="http://www.w3.org/2000/svg" xmlns:xlink="http://www.w3.org/1999/xlink"><g id="Expanded"><g><g><path d="M31,18H17V8h14V18z M19,16h10v-6H19V16z"/></g><g><path d="M41,48H5V0h36V48z M7,46h32V2H7V46z"/></g><g><rect height="2" width="5" x="40" y="13"/></g><g><rect height="2" width="5" x="40" y="21"/></g><g><rect height="2" width="5" x="40" y="29"/></g><g><path d="M42,39h-2v-2h2c1.103,0,2-0.897,2-2V9c0-1.103-0.897-2-2-2h-2V5h2c2.206,0,4,1.794,4,4v26C46,37.206,44.206,39,42,39z"/></g><g><rect height="2" width="6" x="3" y="8"/></g><g><rect height="2" width="6" x="3" y="14"/></g><g><rect height="2" width="6" x="3" y="20"/></g><g><rect height="2" width="6" x="3" y="26"/></g><g><rect height="2" width="6" x="3" y="32"/></g><g><rect height="2" width="6" x="3" y="38"/></g></g></g></svg>